<?xml version="1.0" encoding="utf-8"?>
<!-- Generator: Adobe Illustrator 25.4.1, SVG Export Plug-In . SVG Version: 6.00 Build 0)  -->
<svg version="1.1" id="Layer_2_00000002375800177557685650000003344114599662680727_"
	 xmlns="http://www.w3.org/2000/svg" xmlns:xlink="http://www.w3.org/1999/xlink" x="0px" y="0px" viewBox="0 0 740.3 842.5"
	 style="enable-background:new 0 0 740.3 842.5;" xml:space="preserve">
<style type="text/css">
	.st0{fill:#FFFFFF;}
	.st1{fill:#292A2E;}
	.st2{fill:#367CFF;}
	.st3{fill:#0CBC8B;}
	.st4{fill:#F4F4F4;}
	.st5{opacity:5.000000e-02;fill:#292A2E;enable-background:new    ;}
	.st6{opacity:0.34;fill:#FFFFFA;enable-background:new    ;}
	.st7{opacity:0.1;fill:#292A2E;enable-background:new    ;}
	.st8{fill:#494949;}
	.st9{opacity:0.8;fill:#FFFFFF;enable-background:new    ;}
	.st10{fill:#FF9E85;}
	.st11{opacity:0.22;fill:#0C0C0C;enable-background:new    ;}
	.st12{fill:#0C0C0C;}
	.st13{fill:#0A0A0A;}
	.st14{fill:#262626;}
	.st15{opacity:0.8;fill:#0A0A0A;enable-background:new    ;}
	.st16{opacity:0.2;fill:#0A0A0A;enable-background:new    ;}
	.st17{opacity:0.2;fill:#FFFFFF;enable-background:new    ;}
	.st18{opacity:0.5;fill:#FFFFFF;enable-background:new    ;}
	.st19{opacity:0.3;fill:#FFFFFF;enable-background:new    ;}
	.st20{opacity:0.65;}
</style>
<g id="Layer_2-2">
	<g>
		<g>
			<g>
				<g>
					<path class="st0" d="M44.4,237.5c-8.3,0-15-6.7-15-15v-152c0-8.3,6.7-15,15-15h208.7c8.3,0,15,6.7,15,15v152
						c0,8.3-6.7,15-15,15H44.4L44.4,237.5z"/>
					<path class="st1" d="M268.7,222.5c0,8.6-7,15.6-15.6,15.6H44.4c-8.6,0-15.6-7-15.6-15.6v-152c0-8.6,7-15.6,15.6-15.6h208.7
						c8.6,0,15.6,7,15.6,15.6L268.7,222.5L268.7,222.5z M253.1,56.2H44.4c-7.9,0-14.3,6.4-14.3,14.3v152c0,7.9,6.4,14.3,14.3,14.3
						h208.7c7.9,0,14.3-6.4,14.3-14.3v-152C267.4,62.6,261,56.2,253.1,56.2L253.1,56.2z"/>
				</g>
				<path class="st1" d="M268.1,70.5c0-8.3-6.7-15-15-15H44.4c-8.3,0-15,6.7-15,15v12.7h238.6L268.1,70.5L268.1,70.5z"/>
			</g>
			<path class="st1" d="M186,103.2c0-0.3,0.2-0.5,0.5-0.5h11.3c0.3,0,0.5,0.2,0.5,0.5s-0.2,0.5-0.5,0.5h-11.3
				C186.3,103.7,186,103.4,186,103.2z"/>
			<g>
				<path class="st2" d="M205.4,103.2c0-0.3,0.2-0.5,0.5-0.5h4.3c0.3,0,0.5,0.2,0.5,0.5s-0.2,0.5-0.5,0.5h-4.3
					C205.7,103.7,205.4,103.4,205.4,103.2z"/>
				<path class="st2" d="M205.4,112.2c0-0.3,0.2-0.5,0.5-0.5h4.3c0.3,0,0.5,0.2,0.5,0.5s-0.2,0.5-0.5,0.5h-4.3
					C205.7,112.7,205.4,112.5,205.4,112.2z"/>
				<path class="st2" d="M205.4,121.2c0-0.3,0.2-0.5,0.5-0.5h4.3c0.3,0,0.5,0.2,0.5,0.5s-0.2,0.5-0.5,0.5h-4.3
					C205.7,121.7,205.4,121.5,205.4,121.2z"/>
				<path class="st2" d="M205.4,130.2c0-0.3,0.2-0.5,0.5-0.5h4.3c0.3,0,0.5,0.2,0.5,0.5s-0.2,0.5-0.5,0.5h-4.3
					C205.7,130.7,205.4,130.5,205.4,130.2z"/>
				<path class="st2" d="M205.4,139.2c0-0.3,0.2-0.5,0.5-0.5h4.3c0.3,0,0.5,0.2,0.5,0.5s-0.2,0.5-0.5,0.5h-4.3
					C205.7,139.7,205.4,139.5,205.4,139.2z"/>
				<path class="st2" d="M205.4,148.3c0-0.3,0.2-0.5,0.5-0.5h4.3c0.3,0,0.5,0.2,0.5,0.5s-0.2,0.5-0.5,0.5h-4.3
					C205.7,148.8,205.4,148.5,205.4,148.3z"/>
				<path class="st2" d="M205.4,157.3c0-0.3,0.2-0.5,0.5-0.5h4.3c0.3,0,0.5,0.2,0.5,0.5s-0.2,0.5-0.5,0.5h-4.3
					C205.7,157.8,205.4,157.6,205.4,157.3z"/>
				<path class="st2" d="M205.4,166.3c0-0.3,0.2-0.5,0.5-0.5h4.3c0.3,0,0.5,0.2,0.5,0.5s-0.2,0.5-0.5,0.5h-4.3
					C205.7,166.8,205.4,166.6,205.4,166.3z"/>
				<path class="st2" d="M205.4,175.3c0-0.3,0.2-0.5,0.5-0.5h4.3c0.3,0,0.5,0.2,0.5,0.5s-0.2,0.5-0.5,0.5h-4.3
					C205.7,175.8,205.4,175.6,205.4,175.3z"/>
				<path class="st2" d="M205.4,184.3c0-0.3,0.2-0.5,0.5-0.5h4.3c0.3,0,0.5,0.2,0.5,0.5s-0.2,0.5-0.5,0.5h-4.3
					C205.7,184.8,205.4,184.6,205.4,184.3z"/>
				<path class="st2" d="M205.4,193.4c0-0.3,0.2-0.5,0.5-0.5h4.3c0.3,0,0.5,0.2,0.5,0.5s-0.2,0.5-0.5,0.5h-4.3
					C205.7,193.9,205.4,193.6,205.4,193.4z"/>
				<path class="st2" d="M205.4,202.4c0-0.3,0.2-0.5,0.5-0.5h4.3c0.3,0,0.5,0.2,0.5,0.5s-0.2,0.5-0.5,0.5h-4.3
					C205.7,202.9,205.4,202.7,205.4,202.4z"/>
				<path class="st2" d="M205.4,211.4c0-0.3,0.2-0.5,0.5-0.5h4.3c0.3,0,0.5,0.2,0.5,0.5s-0.2,0.5-0.5,0.5h-4.3
					C205.7,211.9,205.4,211.7,205.4,211.4z"/>
				<path class="st2" d="M205.4,220.4c0-0.3,0.2-0.5,0.5-0.5h4.3c0.3,0,0.5,0.2,0.5,0.5s-0.2,0.5-0.5,0.5h-4.3
					C205.7,220.9,205.4,220.7,205.4,220.4z"/>
			</g>
			<path class="st1" d="M177,112.2c0-0.3,0.2-0.5,0.5-0.5h10.3c0.3,0,0.5,0.2,0.5,0.5s-0.2,0.5-0.5,0.5h-10.3
				C177.3,112.7,177,112.5,177,112.2z"/>
			<path class="st1" d="M186,166.3c0-0.3,0.2-0.5,0.5-0.5h11.3c0.3,0,0.5,0.2,0.5,0.5s-0.2,0.5-0.5,0.5h-11.3
				C186.3,166.8,186,166.6,186,166.3z"/>
			<path class="st1" d="M177,175.3c0-0.3,0.2-0.5,0.5-0.5h10.3c0.3,0,0.5,0.2,0.5,0.5s-0.2,0.5-0.5,0.5h-10.3
				C177.3,175.8,177,175.6,177,175.3z"/>
			<g>
				<path class="st1" d="M119,121.2c0-0.3,0.2-0.5,0.5-0.5h61.3c0.3,0,0.5,0.2,0.5,0.5s-0.2,0.5-0.5,0.5h-61.3
					C119.3,121.7,119,121.5,119,121.2z"/>
				<path class="st3" d="M65,121.2c0-0.3,0.2-0.5,0.5-0.5h43.3c0.3,0,0.5,0.2,0.5,0.5s-0.2,0.5-0.5,0.5H65.5
					C65.2,121.7,65,121.5,65,121.2z"/>
				<path class="st1" d="M41.7,121.2c0-0.3,0.2-0.5,0.5-0.5h13.3c0.3,0,0.5,0.2,0.5,0.5s-0.2,0.5-0.5,0.5H42.2
					C42,121.7,41.7,121.5,41.7,121.2z"/>
			</g>
			<g>
				<path class="st1" d="M89,139.2c0-0.3,0.2-0.5,0.5-0.5h91.3c0.3,0,0.5,0.2,0.5,0.5s-0.2,0.5-0.5,0.5H89.5
					C89.3,139.7,89,139.5,89,139.2z"/>
				<path class="st2" d="M65,139.2c0-0.3,0.2-0.5,0.5-0.5h13.3c0.3,0,0.5,0.2,0.5,0.5s-0.2,0.5-0.5,0.5H65.5
					C65.2,139.7,65,139.5,65,139.2z"/>
			</g>
			<g>
				<path class="st3" d="M169,130.2c0-0.3,0.2-0.5,0.5-0.5h11.3c0.3,0,0.5,0.2,0.5,0.5s-0.2,0.5-0.5,0.5h-11.3
					C169.3,130.7,169,130.5,169,130.2z"/>
				<path class="st2" d="M95,130.2c0-0.3,0.2-0.5,0.5-0.5h63.3c0.3,0,0.5,0.2,0.5,0.5s-0.2,0.5-0.5,0.5H95.5
					C95.2,130.7,95,130.5,95,130.2z"/>
				<path class="st1" d="M41.7,130.2c0-0.3,0.2-0.5,0.5-0.5h41.3c0.3,0,0.5,0.2,0.5,0.5s-0.2,0.5-0.5,0.5H42.2
					C41.9,130.7,41.7,130.5,41.7,130.2z"/>
			</g>
			<g>
				<path class="st1" d="M119,148.3c0-0.3,0.2-0.5,0.5-0.5h61.3c0.3,0,0.5,0.2,0.5,0.5s-0.2,0.5-0.5,0.5h-61.3
					C119.3,148.8,119,148.5,119,148.3z"/>
				<path class="st3" d="M85,148.3c0-0.3,0.2-0.5,0.5-0.5h23.3c0.3,0,0.5,0.2,0.5,0.5s-0.2,0.5-0.5,0.5H85.5
					C85.2,148.8,85,148.5,85,148.3z"/>
				<path class="st1" d="M41.7,148.3c0-0.3,0.2-0.5,0.5-0.5h33.3c0.3,0,0.5,0.2,0.5,0.5s-0.2,0.5-0.5,0.5H42.2
					C42,148.8,41.7,148.5,41.7,148.3z"/>
			</g>
			<g>
				<path class="st2" d="M169,157.3c0-0.3,0.2-0.5,0.5-0.5h11.3c0.3,0,0.5,0.2,0.5,0.5s-0.2,0.5-0.5,0.5h-11.3
					C169.3,157.8,169,157.6,169,157.3z"/>
				<path class="st3" d="M95,157.3c0-0.3,0.2-0.5,0.5-0.5h63.3c0.3,0,0.5,0.2,0.5,0.5s-0.2,0.5-0.5,0.5H95.5
					C95.2,157.8,95,157.6,95,157.3z"/>
			</g>
			<g>
				<path class="st1" d="M121,193.4c0-0.3,0.2-0.5,0.5-0.5h61.3c0.3,0,0.5,0.2,0.5,0.5s-0.2,0.5-0.5,0.5h-61.3
					C121.3,193.9,121,193.6,121,193.4z"/>
				<path class="st2" d="M67,193.4c0-0.3,0.2-0.5,0.5-0.5h43.3c0.3,0,0.5,0.2,0.5,0.5s-0.2,0.5-0.5,0.5H67.5
					C67.2,193.9,67,193.6,67,193.4z"/>
			</g>
			<g>
				<path class="st3" d="M151,184.3c0-0.3,0.2-0.5,0.5-0.5h31.3c0.3,0,0.5,0.2,0.5,0.5s-0.2,0.5-0.5,0.5h-31.3
					C151.3,184.8,151,184.6,151,184.3z"/>
				<path class="st2" d="M97,184.3c0-0.3,0.2-0.5,0.5-0.5h43.3c0.3,0,0.5,0.2,0.5,0.5s-0.2,0.5-0.5,0.5H97.5
					C97.2,184.8,97,184.6,97,184.3z"/>
				<path class="st1" d="M43.7,184.3c0-0.3,0.2-0.5,0.5-0.5h41.3c0.3,0,0.5,0.2,0.5,0.5s-0.2,0.5-0.5,0.5H44.2
					C43.9,184.8,43.7,184.6,43.7,184.3z"/>
			</g>
			<g>
				<path class="st2" d="M91,211.4c0-0.3,0.2-0.5,0.5-0.5h91.3c0.3,0,0.5,0.2,0.5,0.5s-0.2,0.5-0.5,0.5H91.5
					C91.3,211.9,91,211.7,91,211.4z"/>
				<path class="st1" d="M67,211.4c0-0.3,0.2-0.5,0.5-0.5h13.3c0.3,0,0.5,0.2,0.5,0.5s-0.2,0.5-0.5,0.5H67.5
					C67.2,211.9,67,211.7,67,211.4z"/>
			</g>
			<g>
				<path class="st2" d="M171,202.4c0-0.3,0.2-0.5,0.5-0.5h11.3c0.3,0,0.5,0.2,0.5,0.5s-0.2,0.5-0.5,0.5h-11.3
					C171.3,202.9,171,202.7,171,202.4z"/>
				<path class="st1" d="M97,202.4c0-0.3,0.2-0.5,0.5-0.5h63.3c0.3,0,0.5,0.2,0.5,0.5s-0.2,0.5-0.5,0.5H97.5
					C97.2,202.9,97,202.7,97,202.4z"/>
				<path class="st3" d="M43.7,202.4c0-0.3,0.2-0.5,0.5-0.5h41.3c0.3,0,0.5,0.2,0.5,0.5s-0.2,0.5-0.5,0.5H44.2
					C43.9,202.9,43.7,202.7,43.7,202.4z"/>
			</g>
			<g>
				<path class="st3" d="M121,220.4c0-0.3,0.2-0.5,0.5-0.5h61.3c0.3,0,0.5,0.2,0.5,0.5s-0.2,0.5-0.5,0.5h-61.3
					C121.3,220.9,121,220.7,121,220.4z"/>
				<path class="st1" d="M87,220.4c0-0.3,0.2-0.5,0.5-0.5h23.3c0.3,0,0.5,0.2,0.5,0.5s-0.2,0.5-0.5,0.5H87.5
					C87.2,220.9,87,220.7,87,220.4z"/>
				<path class="st2" d="M43.7,220.4c0-0.3,0.2-0.5,0.5-0.5h33.3c0.3,0,0.5,0.2,0.5,0.5s-0.2,0.5-0.5,0.5H44.2
					C44,220.9,43.7,220.7,43.7,220.4z"/>
			</g>
			<path class="st1" d="M214.9,230.6c-0.3,0-0.5-0.2-0.5-0.5V87.9c0-0.3,0.2-0.5,0.5-0.5s0.5,0.2,0.5,0.5v142.2
				C215.4,230.4,215.2,230.6,214.9,230.6L214.9,230.6z"/>
			
				<ellipse transform="matrix(1.612269e-02 -0.9999 0.9999 1.612269e-02 -23.6673 116.738)" class="st0" cx="47.5" cy="70.4" rx="8" ry="8"/>
			<g>
				<path class="st1" d="M237.3,93.7c0-0.3,0.2-0.5,0.5-0.5h21.7c0.3,0,0.5,0.2,0.5,0.5s-0.2,0.5-0.5,0.5h-21.7
					C237.5,94.2,237.3,93.9,237.3,93.7z"/>
				<path class="st1" d="M243.8,103.5c0-0.3,0.2-0.5,0.5-0.5h15.1c0.3,0,0.5,0.2,0.5,0.5s-0.2,0.5-0.5,0.5h-15.1
					C244.1,104,243.8,103.8,243.8,103.5z"/>
				<path class="st1" d="M230.5,113.4c0-0.3,0.2-0.5,0.5-0.5h28.4c0.3,0,0.5,0.2,0.5,0.5s-0.2,0.5-0.5,0.5H231
					C230.8,113.9,230.5,113.7,230.5,113.4z"/>
				<path class="st1" d="M225.2,123.3c0-0.3,0.2-0.5,0.5-0.5h23.7c0.3,0,0.5,0.2,0.5,0.5s-0.2,0.5-0.5,0.5h-23.7
					C225.4,123.8,225.2,123.5,225.2,123.3z"/>
				<path class="st1" d="M236.7,133.1c0-0.3,0.2-0.5,0.5-0.5h12.3c0.3,0,0.5,0.2,0.5,0.5s-0.2,0.5-0.5,0.5h-12.3
					C236.9,133.6,236.7,133.4,236.7,133.1z"/>
				<path class="st1" d="M227.3,143c0-0.3,0.2-0.5,0.5-0.5h21.7c0.3,0,0.5,0.2,0.5,0.5s-0.2,0.5-0.5,0.5h-21.7
					C227.5,143.5,227.3,143.3,227.3,143z"/>
				<path class="st1" d="M242.3,152.8c0-0.3,0.2-0.5,0.5-0.5h16.7c0.3,0,0.5,0.2,0.5,0.5s-0.2,0.5-0.5,0.5h-16.7
					C242.5,153.3,242.3,153.1,242.3,152.8z"/>
				<path class="st1" d="M248,162.7c0-0.3,0.2-0.5,0.5-0.5h11c0.3,0,0.5,0.2,0.5,0.5s-0.2,0.5-0.5,0.5h-11
					C248.2,163.2,248,163,248,162.7z"/>
			</g>
			<g>
				<path class="st2" d="M200.4,89.7c-0.2-0.1-0.3-0.2-0.3-0.4v-0.2c0-0.2,0.1-0.3,0.2-0.4c0.1-0.1,0.2-0.1,0.3-0.1
					c0.1,0,0.1,0,0.2,0l7.1,2.8c0.2,0.1,0.3,0.2,0.3,0.4v0.5c0,0.2-0.1,0.4-0.3,0.4l-7.1,2.8c-0.2,0.1-0.3,0-0.4-0.1
					c-0.1-0.1-0.2-0.2-0.2-0.4V95c0-0.2,0.1-0.4,0.3-0.4l6.2-2.3v-0.2C206.6,92,200.4,89.7,200.4,89.7z"/>
				<path class="st2" d="M194.3,86.2c0.1-0.1,0.2-0.2,0.4-0.2c0.2,0,0.4,0.1,0.5,0.3l3.7,11.4c0,0.2,0,0.3-0.1,0.4
					c-0.1,0.1-0.2,0.2-0.4,0.2c-0.2,0-0.4-0.1-0.5-0.3l-3.7-11.4C194.2,86.5,194.2,86.3,194.3,86.2z"/>
				<path class="st2" d="M185.3,91.5l7.1-2.8c0,0,0.1,0,0.2,0c0.1,0,0.2,0,0.3,0.1c0.1,0.1,0.2,0.2,0.2,0.4v0.2
					c0,0.2-0.1,0.4-0.3,0.4l-6.2,2.3v0.2l6.2,2.3c0.2,0.1,0.3,0.2,0.3,0.4v0.2c0,0.1-0.1,0.3-0.2,0.4c-0.1,0.1-0.3,0.1-0.4,0.1
					l-7.1-2.8c-0.2-0.1-0.3-0.2-0.3-0.4v-0.5C185,91.7,185.1,91.5,185.3,91.5z"/>
			</g>
		</g>
		<g>
			<rect id="c_3_c" x="326.4" y="0" class="st4" width="352.2" height="352.2"/>
			<rect id="c_3_c-2" x="678.6" y="0" class="st4" width="4" height="352.2"/>
			<rect id="c_3_c-3" x="678.6" y="0" class="st5" width="4" height="352.2"/>
			<polygon id="c_3_c-4" class="st5" points="661.7,242.7 661.7,352.2 410.5,352.2 400.9,352.2 351.2,352.2 351.2,298.9 
				400.9,298.9 400.9,204.1 517.8,204.1 517.8,150.6 593.3,150.6 593.3,242.7 			"/>
			<g id="c_3_wh">
				<rect id="c_3_wh-2" x="527.5" y="160.6" class="st6" width="55" height="10"/>
				<rect id="c_3_wh-3" x="527.5" y="181.3" class="st6" width="55" height="10"/>
				<rect id="c_3_wh-4" x="527.5" y="202" class="st6" width="55" height="10"/>
			</g>
			<g id="c_3_wh-5">
				<rect id="c_3_wh-6" x="641.8" y="252.4" class="st6" width="10.1" height="10"/>
				<rect id="c_3_wh-7" x="641.8" y="273.2" class="st6" width="10.1" height="10"/>
				<rect id="c_3_wh-8" x="641.8" y="293.9" class="st6" width="10.1" height="10"/>
				<rect id="c_3_wh-9" x="623.1" y="252.4" class="st6" width="10.1" height="10"/>
				<rect id="c_3_wh-10" x="623.1" y="273.2" class="st6" width="10.1" height="10"/>
				<rect id="c_3_wh-11" x="623.1" y="293.9" class="st6" width="10.1" height="10"/>
				<rect id="c_3_wh-12" x="604.8" y="252.4" class="st6" width="10.1" height="10"/>
				<rect id="c_3_wh-13" x="604.8" y="273.2" class="st6" width="10.1" height="10"/>
				<rect id="c_3_wh-14" x="604.8" y="293.9" class="st6" width="10.1" height="10"/>
			</g>
			<polygon class="st0" points="678.6,180 607.8,180 607.8,352.2 601.9,352.2 601.9,180 410.5,180 410.5,352.2 404.6,352.2 
				404.6,180 326.4,180 326.4,174.1 404.6,174.1 404.6,0 410.5,0 410.5,174.1 601.9,174.1 601.9,0 607.8,0 607.8,174.1 678.6,174.1 
							"/>
			<rect id="c_3_c-5" x="312.4" y="351.8" class="st4" width="380.3" height="11.7"/>
			<rect id="c_3_c-6" x="312.4" y="351.8" class="st7" width="380.3" height="11.7"/>
			<rect id="c_3_c-7" x="692.7" y="351.8" class="st7" width="5.5" height="11.7"/>
			<rect id="c_3_c-8" x="692.7" y="351.8" class="st7" width="5.5" height="11.7"/>
			<g>
				<rect x="326.4" y="6.3" class="st0" width="356.3" height="8.7"/>
				<rect x="326.4" y="22.6" class="st0" width="356.3" height="8.7"/>
				<rect x="326.4" y="38.8" class="st0" width="356.3" height="8.7"/>
				<rect x="326.4" y="55.1" class="st0" width="356.3" height="8.7"/>
				<rect x="326.4" y="71.4" class="st0" width="356.3" height="8.7"/>
			</g>
			<rect x="639.5" y="0" class="st0" width="5.3" height="89.9"/>
			<circle class="st0" cx="642.6" cy="95.5" r="7.3"/>
		</g>
		<g>
			<g>
				<polygon class="st8" points="648.9,536.8 650.8,536.4 681.5,841.4 679.6,841.8 				"/>
				<polygon class="st8" points="534.6,536.8 536.5,536.4 567.2,841.4 565.3,841.8 				"/>
				<g>
					<polygon class="st8" points="343.3,536.8 341.4,536.4 310.7,841.4 312.6,841.8 					"/>
					<polygon class="st8" points="457.6,536.8 455.7,536.4 425,841.4 426.9,841.8 					"/>
				</g>
				
					<rect x="391.9" y="468.4" transform="matrix(0.1323 -0.9912 0.9912 0.1323 -66.4915 862.9337)" class="st8" width="135.5" height="2"/>
				
					<rect x="597.7" y="468.4" transform="matrix(0.1323 -0.9912 0.9912 0.1323 112.0953 1066.9464)" class="st8" width="135.5" height="2"/>
				<g>
					<path class="st1" d="M661,536.6L661,536.6c0,5.4-4.4,9.8-9.8,9.8H449.9c-5.4,0-9.8-4.4-9.8-9.8v0c0-5.4,4.4-9.8,9.8-9.8h201.3
						C656.6,526.8,661,531.2,661,536.6z"/>
					<path class="st9" d="M661,536.6L661,536.6c0,5.4-4.4,9.8-9.8,9.8H449.9c-5.4,0-9.8-4.4-9.8-9.8v0c0-5.4,4.4-9.8,9.8-9.8h201.3
						C656.6,526.8,661,531.2,661,536.6z"/>
					<path class="st1" d="M449.9,547.4c-6,0-10.8-4.9-10.8-10.8s4.9-10.8,10.8-10.8h201.3c6,0,10.8,4.9,10.8,10.8
						s-4.9,10.8-10.8,10.8H449.9L449.9,547.4z M651.2,527.8H449.9c-4.9,0-8.8,4-8.8,8.8s4,8.8,8.8,8.8h201.3c4.9,0,8.8-4,8.8-8.8
						S656.1,527.8,651.2,527.8L651.2,527.8z"/>
				</g>
				<g>
					<path class="st0" d="M550.5,536.6L550.5,536.6c0,5.4-4.4,9.8-9.8,9.8H339.4c-5.4,0-9.8-4.4-9.8-9.8v0c0-5.4,4.4-9.8,9.8-9.8
						h201.3C546.1,526.8,550.5,531.2,550.5,536.6z"/>
					<path class="st1" d="M328.5,536.6c0-6,4.9-10.8,10.8-10.8h201.3c6,0,10.8,4.9,10.8,10.8s-4.9,10.8-10.8,10.8H339.4
						C333.4,547.4,328.5,542.6,328.5,536.6z M339.4,527.8c-4.9,0-8.8,4-8.8,8.8s4,8.8,8.8,8.8h201.3c4.9,0,8.8-4,8.8-8.8
						s-4-8.8-8.8-8.8H339.4z"/>
				</g>
				<g>
					<path class="st1" d="M465.6,387.4l12.9-99.2c0.9-6.5,6.4-11.4,13-11.4h195.2c7.9,0,14.1,7,13,14.8l-12.9,99.2
						c-0.9,6.5-6.4,11.4-13,11.4H478.7C470.7,402.3,464.6,395.3,465.6,387.4z"/>
					<path class="st9" d="M465.6,387.4l12.9-99.2c0.9-6.5,6.4-11.4,13-11.4h195.2c7.9,0,14.1,7,13,14.8l-12.9,99.2
						c-0.9,6.5-6.4,11.4-13,11.4H478.7C470.7,402.3,464.6,395.3,465.6,387.4z"/>
					<path class="st1" d="M478.7,403.3c-4.1,0-7.9-1.8-10.6-4.8s-3.9-7.1-3.4-11.2l12.9-99.2c0.9-7,6.9-12.3,14-12.3h195.2
						c4.1,0,7.9,1.8,10.6,4.8s3.9,7.1,3.4,11.2L687.9,391c-0.9,7-6.9,12.3-14,12.3L478.7,403.3L478.7,403.3z M686.8,277.8H491.6
						c-6.1,0-11.3,4.5-12,10.6l-12.9,99.2c-0.5,3.5,0.6,7,2.9,9.6c2.3,2.6,5.6,4.1,9.1,4.1h195.2c6.1,0,11.3-4.5,12-10.6l12.9-99.2
						c0.5-3.5-0.6-7-2.9-9.6C693.6,279.3,690.3,277.8,686.8,277.8L686.8,277.8z"/>
				</g>
				<g>
					<path class="st0" d="M467.6,402.3c-7.9,0-14.1-7-13-14.8l12.9-99.2c0.9-6.5,6.4-11.4,13-11.4h195.2c7.9,0,14.1,7,13,14.8
						l-12.9,99.2c-0.9,6.5-6.4,11.4-13,11.4H467.6L467.6,402.3z"/>
					<path class="st1" d="M467.6,403.3c-4.1,0-7.9-1.8-10.6-4.8s-3.9-7.1-3.4-11.2l12.9-99.2c0.9-7,6.9-12.3,14-12.3h195.2
						c4.1,0,7.9,1.8,10.6,4.8s3.9,7.1,3.4,11.2L676.9,391c-0.9,7-6.9,12.3-14,12.3L467.6,403.3L467.6,403.3z M675.8,277.8H480.5
						c-6.1,0-11.3,4.5-12,10.6l-12.9,99.2c-0.5,3.5,0.6,7,2.9,9.6c2.3,2.6,5.6,4.1,9.1,4.1h195.2c6.1,0,11.3-4.5,12-10.6l12.9-99.2
						c0.5-3.5-0.6-7-2.9-9.6C682.6,279.3,679.3,277.8,675.8,277.8L675.8,277.8z"/>
				</g>
			</g>
			<g>
				<g>
					<path id="sk" class="st10" d="M497.2,207c2.9-0.6,5.6-1.3,8.1-2.1c15.3-4.5,10.9-29.8,10.3-40.7l44.5-9.9
						c0.4,5.2-1,31.3-0.1,36.4c1.5,8.9,7.8,13.1,13,14.2c1.5,0.3,5.4,1.4,8.5,2c-0.7,0-11,30.8-40,33
						C499.6,243,497.4,206.9,497.2,207L497.2,207z"/>
					<path id="sh" class="st11" d="M515,194.5c16.2,0,27.4-9,29.8-14.5c1.3-2.9-3.3-16.2-4.1-19.3c-7,5.8-15.6,9.6-24.6,10.8
						c0.6,5.3,0.9,10.4,0.3,16.1C516,190.8,515.6,192.5,515,194.5L515,194.5z"/>
					<g>
						<path class="st12" d="M507.1,90.9c0,0-5.1-12.9-14.1-14.1c-9-1.2-7.3,11.2-7.3,11.2s-15.9-11-13.3,6.1
							c3.3,22.1,16.1,31.6,16.1,31.6"/>
						<path class="st12" d="M556.4,143.8l8-0.6l3.9-0.3c15.7-60.5-28.9-65-28.9-65"/>
						<path class="st10" d="M497.7,177.6c-5.9-8.8-7.8-21.8-9-30.4c-0.6-4.3-0.8-7.8-0.8-9.8l0-9.5c0.1-23.9,17-43.1,39.5-43l0,0
							c22.5,0.1,34.9,19.5,34.8,43.4l-0.1,21.5c-0.1,23.9-21.1,35.1-38.6,36.8C512.2,187.8,503.2,185.9,497.7,177.6z"/>
						<g>
							<g>
								<circle id="e1_eye" class="st13" cx="496.8" cy="139.8" r="2.4"/>
								<g id="e1_n">
									<path class="st13" d="M515.6,156.3c0,0-0.1,0-0.1,0l-6.4,0.3c-0.3,0-0.6-0.1-0.8-0.3c-0.2-0.2-0.3-0.5-0.2-0.8l1.9-11.9
										c0.1-0.5,0.6-0.9,1.1-0.8c0.5,0.1,0.9,0.6,0.8,1.1l-1.7,10.7l5.2-0.2c0.5,0,1,0.4,1,0.9
										C516.4,155.8,516.1,156.2,515.6,156.3L515.6,156.3z"/>
								</g>
								<g id="e1_m">
									<path class="st13" d="M518.3,167.1c-0.9,0.1-1.9,0.2-3,0.2c-0.5,0-1-0.4-1-1s0.4-1,1-1c9.8-0.2,11.8-5.8,11.8-6.1
										c0.2-0.5,0.7-0.8,1.2-0.6c0.5,0.2,0.8,0.7,0.6,1.2C528.9,160.1,527.1,165.8,518.3,167.1L518.3,167.1z"/>
								</g>
								<path id="e1_eb" class="st13" d="M519.4,127.2c0.2-1.2,3.9-2.6,7.7-2.2c3.8,0.5,7,2.8,6.8,4c-0.1,0.9-3.6,0.7-7.4,0.3
									C522.7,128.9,519.3,128,519.4,127.2L519.4,127.2z"/>
								<circle id="e1_eye-2" class="st13" cx="521.3" cy="137.8" r="2.4"/>
							</g>
							<path id="e1_eb-2" class="st13" d="M490.7,132.2c-0.3-1.2,2.2-4,5.9-5.1c3.7-1.1,7.1-0.2,7.5,1c0.3,0.9-3,2.1-6.7,3.2
								C493.7,132.4,490.9,132.9,490.7,132.2L490.7,132.2z"/>
						</g>
						<path class="st10" d="M560.7,157.1l-5.9,0l2.5-20.1l3.5-4.6c6.8,0,12.3,3.8,12.3,10.7S567.5,157.2,560.7,157.1L560.7,157.1z"
							/>
						<path class="st12" d="M555.9,146l3.2-0.3c1-0.1,1.7-0.8,1.9-1.8l1.2-10c0,0,14.9-45.7-19.6-55.3c-12.5-3.5-39.8-0.2-48,10.7
							c-10.4,13.7-6.1,31.7-5.8,30.5c0.6-3.2,7-4.9,13.7-3.6c15.3,2.8,31.8-7,38.6-5.6c8.7,1.7,11.9,26.3,12.6,33.7
							C553.7,145.3,554.7,146.1,555.9,146L555.9,146z"/>
						
							<ellipse transform="matrix(0.1972 -0.9804 0.9804 0.1972 322.9062 569.2607)" class="st12" cx="509" cy="87.5" rx="13.8" ry="9.3"/>
					</g>
				</g>
				
					<rect x="86" y="632.7" transform="matrix(0.1005 -0.9949 0.9949 0.1005 -364.4612 864.2935)" class="st8" width="419.5" height="2"/>
				<g>
					<path class="st2" d="M219.4,789.7l47.7,1.9v49.7h-99.4c0,0-5.6-20.7,20.4-22.3S219.4,789.7,219.4,789.7L219.4,789.7z"/>
					<path class="st2" d="M408.6,772.2l43.6-19.3l21.9,44.6l-89.2,43.9c0,0-14.2-16.1,8.5-29C416,799.5,408.6,772.2,408.6,772.2
						L408.6,772.2z"/>
					<g>
						<path class="st14" d="M401.2,792.8L280.7,500.2c-6.6-15.3-9.1-37,0-51c9.2-14,27.9-24.2,44.6-24.2h184.1
							c27.4,0,54.3,24,54.3,51.4s-11.4,50.6-38.8,50.6H388.6l75.2,237.4"/>
						<path class="st15" d="M401.2,792.8L280.7,500.2c-6.6-15.3-9.1-37,0-51c9.2-14,27.9-24.2,44.6-24.2h184.1
							c27.4,0,54.3,24,54.3,51.4s-11.4,50.6-38.8,50.6H388.6l75.2,237.4"/>
						<path class="st14" d="M208.3,797.9l104.6-335.3c7.4-18.5,23.1-40.5,43-40.9h222.7c26.9,0,40.6,26.7,41.2,53.8
							c0.6,27.4-17.2,48.6-55.9,51.6l-165.2,0L272.8,815.5"/>
						<path class="st14" d="M631,422l-70.2-0.3l-3.1,105.4c0,0,54.4,2.6,68.9-30.6C638.3,469.9,631,422,631,422L631,422z"/>
					</g>
				</g>
				<path class="st2" d="M308.1,421.1c-2,0.4-12-57.8-12-57.8L397,342.3l40.2-105.8c5.8-15.2,22.8-22.9,38.1-17.1
					c15.2,5.8,22.9,22.8,17.1,38.1l-45.9,121c-3.6,9.4-11.7,16.4-21.6,18.4L308.1,421.1L308.1,421.1z"/>
				<path class="st2" d="M443.1,288.2c-1.5-18-6.1-31.2-6-43c0.1-10.3,3.9-21.4,16.4-29.6c8.9-5.8,44.5-10.6,51-10.6
					c0.2,0-2.5,28.5,37.9,26.6c29.6-1.4,30.9-26.6,30.9-26.6s14.7,0.9,24.4,2.3c16,2.2,34.6,8.6,42,26.6c4.2,10.2,2.9,28.9-0.8,61.8
					c-3.8,34.4-7.1,109.1-8.1,126.7H455.3C454,402.8,444.5,304,443.1,288.2L443.1,288.2z"/>
				<path class="st12" d="M450,368.9c-0.3,0-0.5-0.2-0.5-0.5l-4.6-54.8c0-0.3,0.2-0.5,0.5-0.5c0.3,0,0.5,0.2,0.5,0.5l4.6,54.8
					C450.5,368.7,450.3,368.9,450,368.9C450.1,368.9,450,368.9,450,368.9L450,368.9z"/>
				<g>
					<path class="st1" d="M366.4,401.8c2.2,6.7-2.8,13.6-9.9,13.6h-157c-4.5,0-8.5-2.9-9.9-7.2l-48.5-118.4
						c-2.2-6.7,2.8-13.6,9.9-13.6h167c4.5,0,8.5,2.9,9.9,7.2L366.4,401.8L366.4,401.8z"/>
					<path class="st1" d="M366.4,401.8c2.2,6.7-2.8,13.6-9.9,13.6h-157c-4.5,0-8.5-2.9-9.9-7.2l-48.5-118.4
						c-2.2-6.7,2.8-13.6,9.9-13.6h167c4.5,0,8.5,2.9,9.9,7.2L366.4,401.8L366.4,401.8z"/>
					<path class="st1" d="M444.8,410.5v0.1c0,2.6-2.1,4.7-4.7,4.7H335c-2.6,0-4.7-2.1-4.7-4.7v-0.1c0-2.6,2.1-4.7,4.7-4.7H440
						C442.7,405.8,444.8,407.9,444.8,410.5z"/>
					<path class="st1" d="M444.8,410.5v0.1c0,2.6-2.1,4.7-4.7,4.7H335c-2.6,0-4.7-2.1-4.7-4.7v-0.1c0-2.6,2.1-4.7,4.7-4.7H440
						C442.7,405.8,444.8,407.9,444.8,410.5z"/>
					<circle class="st0" cx="258.8" cy="351.6" r="16.5"/>
				</g>
				<g id="b_4_ha">
					<path class="st10" d="M375.2,374c-2.3,0.8-3.5,3.3-2.7,5.6c0.8,2.3,3.3,3.5,5.6,2.7l10.9-3.8c0,0,0,0.1,0,0.1
						c-2,1.2-2.9,3.9-1.7,6.2c1.1,2,3.5,2.8,5.6,2.1l1.5-0.5c0,0,0.1,0.1,0.1,0.1c-1.9,1.1-2.8,3.4-2,5.6c0.9,2.4,3.6,3.5,6,2.7
						l3.7-1.2c-0.1,0.1-0.1,0.3-0.1,0.4c0,0.1,0.1,0.1,0.1,0.2c-1.3,1.4-1.8,3.5-0.7,5.4c1.1,2,3.5,2.8,5.6,2.1l20.1-6.3
						c9.1-2.8,15.5-10.9,16.3-20.4l1.2-14.9l-46.4-4.9c-2.6-0.3-5,1.7-5.1,4.3c-0.1,2.5,1.9,4.6,4.4,4.9l3.8,0.3L375.2,374
						L375.2,374z"/>
					<path id="b_4_ha_sh" class="st16" d="M389.4,378.9c-0.2,0-0.3-0.1-0.4-0.3c-0.1-0.2,0-0.5,0.3-0.6l10.6-3.8
						c0.2-0.1,0.5,0,0.6,0.3s0,0.5-0.3,0.6l-10.6,3.8C389.5,378.9,389.5,378.9,389.4,378.9L389.4,378.9z"/>
					<path id="b_4_ha_sh-2" class="st16" d="M394.4,386.3c-0.1-0.2,0-0.5,0.3-0.6l8.3-3c0.2-0.1,0.5,0,0.6,0.3
						c0.1,0.2,0,0.5-0.3,0.6l-8.3,3c0,0-0.1,0-0.1,0C394.6,386.6,394.4,386.5,394.4,386.3z"/>
					<path id="b_4_ha_sh-3" class="st16" d="M402.6,394.4c-0.2,0-0.3-0.1-0.4-0.3c-0.1-0.2,0-0.5,0.3-0.6l3.9-1.5
						c0.2-0.1,0.5,0,0.6,0.3c0.1,0.2,0,0.5-0.3,0.6l-3.9,1.5C402.7,394.3,402.7,394.4,402.6,394.4L402.6,394.4z"/>
				</g>
				<path class="st2" d="M422.6,408.5l132.5,7.8c13.4,0.8,25.3-7,30.4-18.7l0.5-1.2L637.9,276l-62.1-26.1l-41.6,101.5l-110,0.1
					L422.6,408.5z"/>
				<path class="st12" d="M556.9,416.9c-0.6,0-1.2,0-1.9-0.1L422.6,409l-0.5,0l1.7-58l110.1-0.1l31.7-77.4l0.9,0.4l-32,78.1
					L424.7,352l-1.6,56.1l132,7.8c12.8,0.8,24.8-6.6,29.9-18.4l44.8-103.9l0.9,0.4l-44.2,102.7l-0.5,1.2
					C581,409.4,569.4,416.9,556.9,416.9L556.9,416.9z"/>
			</g>
			<g>
				<g>
					<g>
						
							<rect x="698.4" y="424" transform="matrix(0.9949 -0.1006 0.1006 0.9949 -60.1871 73.5502)" class="st8" width="2" height="419.5"/>
						
							<rect x="524.1" y="424" transform="matrix(0.9949 -0.1006 0.1006 0.9949 -61.0708 56.021)" class="st8" width="2" height="419.5"/>
					</g>
					
						<rect x="-88.3" y="632.7" transform="matrix(0.1005 -0.9949 0.9949 0.1005 -521.2416 690.8784)" class="st8" width="419.5" height="2"/>
				</g>
				<g>
					<path class="st1" d="M722.7,425L722.7,425c0,4.5-3.7,8.2-8.2,8.2h-611c-4.5,0-8.2-3.7-8.2-8.2v0c0-4.5,3.7-8.2,8.2-8.2h611
						C719.1,416.8,722.7,420.5,722.7,425z"/>
					<path class="st9" d="M722.7,425L722.7,425c0,4.5-3.7,8.2-8.2,8.2h-611c-4.5,0-8.2-3.7-8.2-8.2v0c0-4.5,3.7-8.2,8.2-8.2h611
						C719.1,416.8,722.7,420.5,722.7,425z"/>
					<path class="st1" d="M103.5,434.2c-5.1,0-9.2-4.1-9.2-9.2s4.1-9.2,9.2-9.2h611c5.1,0,9.2,4.1,9.2,9.2s-4.1,9.2-9.2,9.2H103.5
						L103.5,434.2z M103.5,417.8c-4,0-7.2,3.2-7.2,7.2s3.2,7.2,7.2,7.2h611c4,0,7.2-3.2,7.2-7.2s-3.2-7.2-7.2-7.2H103.5z"/>
				</g>
				<g>
					<path class="st0" d="M541.8,425L541.8,425c0,4.5-3.7,8.2-8.2,8.2h-430c-4.5,0-8.2-3.7-8.2-8.2v0c0-4.5,3.7-8.2,8.2-8.2h430
						C538.1,416.8,541.8,420.5,541.8,425z"/>
					<path class="st1" d="M103.5,434.2c-5.1,0-9.2-4.1-9.2-9.2s4.1-9.2,9.2-9.2h430c5.1,0,9.2,4.1,9.2,9.2s-4.1,9.2-9.2,9.2H103.5
						L103.5,434.2z M533.6,417.8h-430c-4,0-7.2,3.2-7.2,7.2s3.2,7.2,7.2,7.2h430c4,0,7.2-3.2,7.2-7.2S537.5,417.8,533.6,417.8
						L533.6,417.8z"/>
				</g>
			</g>
		</g>
		<g>
			<path class="st8" d="M87.1,709.4c-0.3,0-0.5-0.1-0.7-0.3c-0.4-0.4-0.4-0.9-0.1-1.3c1.4-3.3,5.7-56.3,9.4-103.1
				c2.5-31.5,4.9-61.3,6.7-79.3c0.2-2.2,1.3-2.9,2.2-3.2c4.4-1.3,13.2,7.4,15.8,10.7c0.3,0.4,0.3,1.1-0.1,1.4
				c-0.4,0.3-1.1,0.3-1.4-0.1c-4.1-5-11.3-10.7-13.7-10c-0.2,0.1-0.7,0.2-0.8,1.5c-1.7,18.1-4.1,47.8-6.7,79.3
				c-6.2,77-8.5,102.8-9.9,104.2C87.6,709.3,87.3,709.4,87.1,709.4L87.1,709.4z"/>
			
				<ellipse transform="matrix(0.6254 -0.7803 0.7803 0.6254 -372.0193 298.2568)" class="st3" cx="124.7" cy="536.6" rx="28.4" ry="38.5"/>
			
				<ellipse transform="matrix(0.6254 -0.7803 0.7803 0.6254 -372.0193 298.2568)" class="st17" cx="124.7" cy="536.6" rx="28.4" ry="38.5"/>
			<path class="st0" d="M150,563.8c-0.1,0-0.3-0.1-0.4-0.2l-47.3-57c-0.2-0.2-0.1-0.5,0.1-0.7c0.2-0.2,0.5-0.1,0.7,0.1l47.3,57
				c0.2,0.2,0.1,0.5-0.1,0.7C150.3,563.8,150.2,563.8,150,563.8L150,563.8z"/>
			<path class="st8" d="M76.7,697.2c-0.4,0-0.8-0.3-0.9-0.7L58,645.5c-0.8-2.4-2.8-4.2-5.3-4.8c-2.5-0.6-5.1,0.1-6.9,1.9l-9.4,9
				c-0.4,0.4-1,0.4-1.4,0s-0.4-1,0-1.4l9.4-9c2.3-2.2,5.6-3.1,8.8-2.4c3.2,0.8,5.7,3,6.7,6.1l17.8,51.1c0.2,0.5-0.1,1.1-0.6,1.3
				C77,697.2,76.9,697.2,76.7,697.2L76.7,697.2z"/>
			
				<ellipse transform="matrix(0.6206 -0.7841 0.7841 0.6206 -495.7909 271.4797)" class="st3" cx="32.7" cy="648.1" rx="38.5" ry="28.4"/>
			<path class="st8" d="M95.1,706.2c-0.1,0-0.2,0-0.2,0c-0.5-0.1-0.9-0.7-0.7-1.2L124,580.3c0.6-2.5,2.5-4.4,5-5
				c2.5-0.6,5,0.2,6.7,2.1l9.2,10.6c0.4,0.4,0.3,1-0.1,1.4s-1,0.3-1.4-0.1l-9.2-10.6c-1.2-1.4-3-1.9-4.7-1.5
				c-1.8,0.4-3.1,1.7-3.5,3.5L96.1,705.4C96,705.9,95.6,706.2,95.1,706.2L95.1,706.2z"/>
			
				<ellipse transform="matrix(0.9854 -0.1704 0.1704 0.9854 -102.3638 31.8052)" class="st3" cx="134.1" cy="612.2" rx="28.4" ry="38.5"/>
			<path class="st8" d="M87.1,709.4c-0.5,0-0.9-0.4-1-0.9L67,554c-0.3-2.7-2.1-4.9-4.7-5.7c-2.6-0.8-5.3,0-7.1,2L33.4,575
				c-0.4,0.4-1,0.5-1.4,0.1c-0.4-0.4-0.5-1-0.1-1.4L53.7,549c2.3-2.6,5.9-3.6,9.2-2.6c3.4,1,5.7,3.8,6.1,7.3l19,154.6
				c0.1,0.5-0.3,1-0.9,1.1C87.1,709.4,87.1,709.4,87.1,709.4L87.1,709.4z"/>
			
				<ellipse transform="matrix(0.8751 -0.484 0.484 0.8751 -269.8624 92.0149)" class="st3" cx="43.3" cy="568.7" rx="38.5" ry="28.4"/>
			
				<ellipse transform="matrix(0.6206 -0.7841 0.7841 0.6206 -495.7909 271.4797)" class="st17" cx="32.7" cy="648.1" rx="38.5" ry="28.4"/>
			
				<ellipse transform="matrix(0.9854 -0.1704 0.1704 0.9854 -102.3638 31.8052)" class="st18" cx="134.1" cy="612.2" rx="28.4" ry="38.5"/>
			
				<ellipse transform="matrix(0.8751 -0.484 0.484 0.8751 -269.8624 92.0149)" class="st18" cx="43.3" cy="568.7" rx="38.5" ry="28.4"/>
			<polygon class="st1" points="54.6,684.8 119.5,684.8 111.4,840.6 62.7,840.6 			"/>
			<polygon class="st19" points="54.6,684.8 119.5,684.8 111.4,840.6 62.7,840.6 			"/>
			<path class="st0" d="M8.8,678.8c-0.1,0-0.2,0-0.3-0.1c-0.2-0.2-0.3-0.5-0.1-0.7l47.8-60.4c0.2-0.2,0.5-0.3,0.7-0.1
				c0.2,0.2,0.3,0.5,0.1,0.7L9.2,678.6C9.1,678.7,8.9,678.8,8.8,678.8L8.8,678.8z"/>
			<path class="st0" d="M12.8,592.2c-0.2,0-0.3-0.1-0.4-0.2c-0.2-0.2-0.1-0.5,0.1-0.7l61.2-44.7c0.2-0.2,0.5-0.1,0.7,0.1
				c0.2,0.2,0.1,0.5-0.1,0.7l-61.2,44.7C13,592.2,12.9,592.2,12.8,592.2L12.8,592.2z"/>
			<path class="st0" d="M143.2,649.5c-0.2,0-0.4-0.1-0.5-0.4l-19.5-73c-0.1-0.3,0.1-0.5,0.4-0.6c0.3-0.1,0.5,0.1,0.6,0.4l19.5,73
				c0.1,0.3-0.1,0.5-0.4,0.6C143.2,649.5,143.2,649.5,143.2,649.5L143.2,649.5z"/>
		</g>
		<g>
			<path class="st1" d="M39.2,842c-0.4,0-0.7-0.3-0.7-0.7s0.3-0.7,0.7-0.7h700.4c0.4,0,0.7,0.3,0.7,0.7s-0.3,0.7-0.7,0.7H39.2
				L39.2,842z"/>
			<g class="st20">
				<path class="st1" d="M39.2,842c-0.4,0-0.7-0.3-0.7-0.7s0.3-0.7,0.7-0.7h700.4c0.4,0,0.7,0.3,0.7,0.7s-0.3,0.7-0.7,0.7H39.2
					L39.2,842z"/>
			</g>
		</g>
	</g>
</g>
</svg>
