<svg id="Layer_2" data-name="Layer 2" xmlns="http://www.w3.org/2000/svg" viewBox="0 0 779.067 522.424" style="width: 100%; height: 100%;">
  <g id="Layer_2-2" data-name="Layer 2">
    <g>
      <g>
        <rect x="459.893" width="155.191" height="201.999" fill="#f4f4f4"></rect>
        <rect x="615.083" width="5.034" height="201.999" transform="translate(1235.201 201.999) rotate(180)" fill="#f4f4f4"></rect>
        <rect x="615.083" width="5.034" height="201.999" transform="translate(1235.201 201.999) rotate(180)" fill="#292a2e" opacity=".05"></rect>
        <rect x="488.163" y="36.797" width="98.651" height="128.406" fill="#292a2e" opacity=".05"></rect>
        <rect x="581.672" y="36.797" width="5.141" height="128.406" fill="#292a2e" opacity=".03"></rect>
        <rect x="615.083" y="251.674" width="126.921" height="128.086" fill="#f4f4f4"></rect>
        <rect x="638.204" y="275.007" width="80.68" height="81.421" fill="#292a2e" opacity=".05"></rect>
        <rect x="742.004" y="251.674" width="5.034" height="128.086" transform="translate(1489.043 631.434) rotate(180)" fill="#f4f4f4"></rect>
        <rect x="742.004" y="251.674" width="5.034" height="128.086" transform="translate(1489.043 631.434) rotate(180)" fill="#292a2e" opacity=".05"></rect>
        <rect x="713.742" y="275.007" width="5.141" height="81.421" fill="#292a2e" opacity=".03"></rect>
      </g>
      <g>
        <rect id="c_3_c" x="18.026" y="18.753" width="325.24" height="325.24" fill="#f4f4f4"></rect>
        <rect id="c_3_c-2" data-name="c_3_c" x="14.299" y="18.753" width="3.728" height="325.24" fill="#f4f4f4"></rect>
        <rect id="c_3_c-3" data-name="c_3_c" x="14.299" y="18.753" width="3.728" height="325.24" fill="#292a2e" opacity=".05"></rect>
        <polygon id="c_3_c-4" data-name="c_3_c" points="96.817 242.87 96.817 157.777 166.521 157.777 166.521 207.214 274.493 207.214 274.493 294.749 320.383 294.749 320.383 343.993 274.493 343.993 265.653 343.993 33.672 343.993 33.672 242.87 96.817 242.87" fill="#292a2e" opacity=".05"></polygon>
        <g id="c_3_wh">
          <rect id="c_3_wh-2" data-name="c_3_wh" x="106.815" y="167.016" width="50.759" height="9.239" fill="#fffffa" opacity=".34"></rect>
          <rect id="c_3_wh-3" data-name="c_3_wh" x="106.815" y="186.162" width="50.759" height="9.239" fill="#fffffa" opacity=".34"></rect>
          <rect id="c_3_wh-4" data-name="c_3_wh" x="106.815" y="205.307" width="50.759" height="9.239" fill="#fffffa" opacity=".34"></rect>
        </g>
        <g id="c_3_wh-5" data-name="c_3_wh">
          <rect id="c_3_wh-6" data-name="c_3_wh" x="42.673" y="251.839" width="9.356" height="9.239" fill="#fffffa" opacity=".34"></rect>
          <rect id="c_3_wh-7" data-name="c_3_wh" x="42.673" y="270.984" width="9.356" height="9.239" fill="#fffffa" opacity=".34"></rect>
          <rect id="c_3_wh-8" data-name="c_3_wh" x="42.673" y="290.13" width="9.356" height="9.239" fill="#fffffa" opacity=".34"></rect>
          <rect id="c_3_wh-9" data-name="c_3_wh" x="59.981" y="251.839" width="9.356" height="9.239" fill="#fffffa" opacity=".34"></rect>
          <rect id="c_3_wh-10" data-name="c_3_wh" x="59.981" y="270.984" width="9.356" height="9.239" fill="#fffffa" opacity=".34"></rect>
          <rect id="c_3_wh-11" data-name="c_3_wh" x="59.981" y="290.13" width="9.356" height="9.239" fill="#fffffa" opacity=".34"></rect>
          <rect id="c_3_wh-12" data-name="c_3_wh" x="76.821" y="251.839" width="9.356" height="9.239" fill="#fffffa" opacity=".34"></rect>
          <rect id="c_3_wh-13" data-name="c_3_wh" x="76.821" y="270.984" width="9.356" height="9.239" fill="#fffffa" opacity=".34"></rect>
          <rect id="c_3_wh-14" data-name="c_3_wh" x="76.821" y="290.13" width="9.356" height="9.239" fill="#fffffa" opacity=".34"></rect>
        </g>
        <polygon points="18.026 179.549 83.47 179.549 83.47 18.753 88.882 18.753 88.882 179.549 265.653 179.549 265.653 18.753 271.065 18.753 271.065 179.549 343.267 179.549 343.267 184.961 271.065 184.961 271.065 343.993 265.653 343.993 265.653 184.961 88.882 184.961 88.882 343.993 83.47 343.993 83.47 184.961 18.026 184.961 18.026 179.549" fill="#fff"></polygon>
        <rect id="c_3_c-5" data-name="c_3_c" x="5.07" y="343.601" width="351.153" height="10.816" fill="#f4f4f4"></rect>
        <rect id="c_3_c-6" data-name="c_3_c" x="5.07" y="343.601" width="351.153" height="10.816" fill="#292a2e" opacity=".1"></rect>
        <rect id="c_3_c-7" data-name="c_3_c" x="0" y="343.601" width="5.07" height="10.816" fill="#292a2e" opacity=".1"></rect>
        <rect id="c_3_c-8" data-name="c_3_c" x="0" y="343.601" width="5.07" height="10.816" fill="#292a2e" opacity=".1"></rect>
      </g>
      <g>
        <g>
          <path id="sk" d="m231.009,278.479c-.227-.03-2.745,41.746-51.276,38.104-33.598-2.517-45.577-38.163-46.347-38.163,3.622-.77,8.099-1.938,9.878-2.339,5.911-1.332,13.29-6.209,14.995-16.483.983-5.922-.684-36.216-.171-42.207l51.573,11.511c-.72,12.653-5.764,41.987,11.913,47.179,2.941.859,6.11,1.648,9.436,2.398Z" fill="#ff9e85"></path>
          <path id="sh" d="m210.383,264.092c-.731-2.332-1.165-4.359-1.551-8.004-.691-6.518-.323-12.511.337-18.617-10.419-1.387-20.421-5.769-28.504-12.488-.958,3.537-6.224,18.99-4.766,22.351,2.756,6.354,15.709,16.758,34.484,16.758Z" fill="#0c0c0c" opacity=".22"></path>
          <g>
            <path d="m241.051,184.335s14.799-10.998,18.637-36.539c2.971-19.776-15.386-7.087-15.386-7.087,0,0,2.001-14.26-8.406-12.922-10.407,1.339-16.347,16.29-16.347,16.29" fill="#0c0c0c"></path>
            <path d="m182.127,129.057s-51.644,5.147-33.513,75.211l4.564.34,9.264.69" fill="#0c0c0c"></path>
            <path d="m200.607,255.031c-20.332-1.977-44.587-15.014-44.732-42.634l-.131-24.922c-.145-27.62,14.245-50.087,40.25-50.223h0c26.006-.136,45.561,22.152,45.706,49.772l.058,11.033c.012,2.271-.205,6.348-.911,11.317-1.408,9.914-3.588,24.988-10.401,35.146-6.432,9.589-16.85,11.773-29.84,10.51Z" fill="#ff9e85"></path>
            <g>
              <g>
                <circle id="e1_eye" cx="231.508" cy="200.732" r="2.836" transform="translate(-.289 401.129) rotate(-81.772)" fill="#0a0a0a"></circle>
                <g id="e1_n">
                  <path d="m209.735,219.777c-.568-.082-.993-.581-.969-1.167.024-.626.552-1.114,1.178-1.089l6.035.238-1.942-12.405c-.096-.619.327-1.199.946-1.296.618-.096,1.199.326,1.296.945l2.155,13.768c.052.335-.049.676-.274.93s-.553.392-.892.379l-7.414-.293c-.04-.002-.08-.005-.118-.011Z" fill="#0a0a0a"></path>
                </g>
                <g id="e1_m">
                  <path d="m206.577,232.299c-10.176-1.471-12.315-8.058-12.409-8.366-.183-.599.154-1.233.752-1.417.595-.184,1.227.151,1.414.745.089.28,2.323,6.768,13.714,7.049.639.013,1.122.536,1.107,1.162-.016.626-.536,1.121-1.162,1.106-1.229-.03-2.367-.128-3.417-.279Z" fill="#0a0a0a"></path>
                </g>
                <path id="e1_eb" d="m204.55,186.359c.149.875-3.074,1.686-7.518,2.213s-8.434.794-8.573-.302c-.175-1.385,3.466-4.06,7.909-4.588,4.443-.528,7.947,1.301,8.181,2.677Z" fill="#0a0a0a"></path>
                <circle id="e1_eye-2" data-name="e1_eye" cx="203.106" cy="198.451" r="2.836" transform="translate(-22.37 371.066) rotate(-81.772)" fill="#0a0a0a"></circle>
              </g>
              <path id="e1_eb-2" data-name="e1_eb" d="m238.552,191.875c-.219.86-3.494.293-7.769-1.027-4.275-1.32-8.031-2.696-7.713-3.755.402-1.337,4.374-2.467,8.649-1.147,4.275,1.32,7.178,4.576,6.833,5.929Z" fill="#0a0a0a"></path>
            </g>
            <path d="m157.535,220.803c-7.903.041-14.354-8.38-14.395-16.283-.041-7.903,6.342-12.295,14.245-12.336l4.1,5.274,2.845,23.31-6.795.036Z" fill="#ff9e85"></path>
            <path d="m163.085,207.929c1.317.128,2.491-.826,2.626-2.142.868-8.505,4.52-37.031,14.609-39.007,7.904-1.548,26.958,9.789,44.711,6.541,7.766-1.421,15.114.553,15.836,4.222.286,1.453,5.273-19.355-6.754-35.265-9.575-12.667-41.192-16.46-55.619-12.438-39.947,11.137-22.752,64.052-22.752,64.052l1.439,11.574c.139,1.118,1.034,1.989,2.155,2.098l3.748.364Z" fill="#0c0c0c"></path>
            <ellipse cx="217.307" cy="140.119" rx="10.82" ry="15.926" transform="translate(-23.364 45.603) rotate(-11.373)" fill="#0c0c0c"></ellipse>
          </g>
        </g>
        <path id="b_1_b" d="m179.193,306.594c-34.092-1.607-35.527-30.544-35.527-30.544,0,0-16.892,1.092-28.121,2.611-18.384,2.487-30.512,8.721-40.163,18.372-8.978,8.978-14.444,18.692-8.66,80.711,4.188,44.906,1.24,143.679,1.24,143.679h205.75s12.338-129.465,14.058-149.679c3.283-38.589,5.948-72.206-2.064-80.218-16.471-16.471-48.797-15.476-62.958-15.474-.231,0,2.873,32.73-43.555,30.541Z" fill="#367cff"></path>
        <path id="b_4_b" d="m479.471,520.092l-148.596.734c-14.556-1.052-27.179-10.453-32.357-24.097l-73.292-162.603c-7.349-19.363,2.392-41.017,21.755-48.365,19.366-7.349,38.483-2.408,45.832,16.954l67.335,145.031,122.336,1.985s-2.092,70.427-3.013,70.36Z" fill="#367cff"></path>
        <path d="m284.861,380.766c.018-.275.255-.486.53-.468.276.018.485.255.468.53l-4.183,66.828c-.016.251-.215.448-.459.467-.023.002-.047.002-.071,0-.276-.018-.485-.255-.468-.53" fill="#0c0c0c"></path>
        <g id="b_4_ha">
          <path d="m310.204,452.432l-30.135-10.563,4.326-.299c2.865-.314,5.197-2.74,5.033-5.617-.175-3.068-2.878-5.326-5.893-4.996l-53.314,5.665,1.385,17.133c.88,10.885,8.277,20.148,18.698,23.415l23.088,7.192c2.456.77,5.228-.185,6.446-2.452,1.177-2.19.689-4.664-.836-6.252.066-.054.127-.116.159-.201.061-.161.026-.33-.066-.461l4.256,1.334c2.75.862,5.86-.425,6.864-3.126.926-2.489-.123-5.178-2.292-6.449.052-.026.09-.062.131-.105l1.749.548c2.456.77,5.228-.186,6.446-2.452,1.426-2.652.415-5.726-1.931-7.13.009-.036.016-.072.016-.108l12.549,4.399c2.616.917,5.481-.46,6.398-3.077.917-2.616-.46-5.481-3.077-6.398Z" fill="#ff9e85"></path>
          <path id="b_4_ha_sh" d="m293.84,457.998c-.057,0-.114-.01-.171-.03l-12.139-4.414c-.259-.094-.394-.381-.299-.641.094-.259.381-.392.641-.299l12.139,4.414c.259.094.394.381.299.641-.074.203-.266.329-.47.329Z" fill="#0a0a0a" opacity=".2"></path>
          <path id="b_4_ha_sh-2" data-name="b_4_ha_sh" d="m287.703,466.824c-.056,0-.112-.009-.167-.029l-9.568-3.395c-.26-.092-.396-.378-.304-.638.092-.261.378-.397.638-.304l9.568,3.395c.26.092.396.378.304.638-.073.205-.266.333-.471.333Z" fill="#0a0a0a" opacity=".2"></path>
          <path id="b_4_ha_sh-3" data-name="b_4_ha_sh" d="m278.694,475.779c-.059,0-.12-.011-.178-.033l-4.481-1.709c-.258-.098-.387-.387-.289-.645.098-.26.386-.39.646-.289l4.481,1.709c.258.098.387.387.289.645-.076.2-.266.322-.467.322Z" fill="#0a0a0a" opacity=".2"></path>
        </g>
        <path id="b_4_b-2" data-name="b_4_b" d="m252.557,489.729l-186.838,30.975c-1.356.147-2.712.22-4.061.22-10.264,0-20.15-4.216-27.274-11.767-8.061-8.545-11.652-20.372-9.703-31.955l39.842-159.603c3.437-20.423,22.775-34.19,43.202-30.759,20.423,3.436,34.195,22.778,30.759,43.202l-30.555,111.235,135.764-18.546,8.865,66.997Z" fill="#367cff"></path>
        <g id="b_4_st">
          <path d="m83.573,444.769c-.244,0-.457-.178-.494-.426-.041-.273.147-.527.42-.568l23.288-3.487c.283-.043.528.147.569.42.041.273-.147.527-.42.568l-23.288,3.487c-.025.004-.05.006-.075.006Z" fill="#0c0c0c"></path>
        </g>
        <g id="b_4_st-2" data-name="b_4_st">
          <path d="m70.92,521.424c-.248,0-.462-.184-.495-.436-.036-.273.157-.524.431-.561l180.654-31.077-8.757-66.001-134.825,17.929c-.158.019-.315-.035-.425-.148-.11-.114-.16-.274-.134-.431l14.589-62.941c.045-.272.298-.461.576-.41.272.046.456.304.41.576l-14.477,62.273,134.661-17.907c.133-.019.269.02.375.103s.174.206.188.34l8.865,66.997c.029.27-.163.515-.432.55l-181.139,31.141c-.022.003-.044.004-.065.004Z" fill="#0c0c0c"></path>
        </g>
      </g>
      <g>
        <path d="m396.161,503.145l48.924-150.389c1.764-5.421,6.817-9.091,12.518-9.091h199.318c8.945,0,15.285,8.73,12.518,17.236l-48.924,150.389c-1.764,5.421-6.817,9.091-12.518,9.091h-199.318c-8.945,0-15.285-8.73-12.518-17.236Z" fill="#292a2e"></path>
        <rect x="296.628" y="508.186" width="145.462" height="12.194" rx="6.02" ry="6.02" fill="#292a2e"></rect>
        <circle cx="532.8" cy="439.359" r="20.905" fill="#fff"></circle>
      </g>
      <g>
        <path d="m760.178,287.874h-220.066l-28.216,21.134v-109.241c0-10.156,8.233-18.389,18.389-18.389h229.894c10.156,0,18.389,8.233,18.389,18.389v69.719c0,10.156-8.233,18.389-18.389,18.389Z" fill="#fff"></path>
        <path d="m511.895,309.508c-.076,0-.153-.018-.224-.053-.169-.085-.276-.258-.276-.447v-109.241c0-10.415,8.474-18.889,18.889-18.889h229.895c10.415,0,18.889,8.474,18.889,18.889v69.719c0,10.415-8.474,18.889-18.889,18.889h-219.899l-28.084,21.034c-.088.066-.193.1-.3.1Zm18.389-127.63c-9.864,0-17.889,8.025-17.889,17.889v108.242l27.417-20.535c.087-.064.191-.1.3-.1h220.066c9.864,0,17.889-8.025,17.889-17.889v-69.719c0-9.864-8.024-17.889-17.889-17.889h-229.895Z" fill="#292a2e"></path>
      </g>
      <path d="m759.479,233.406h-144.125c-.391,0-.707-.317-.707-.707s.316-.707.707-.707h144.125c.391,0,.707.317.707.707s-.316.707-.707.707Z" fill="#367cff"></path>
      <path d="m759.479,251.08h-144.125c-.391,0-.707-.317-.707-.707s.316-.707.707-.707h144.125c.391,0,.707.317.707.707s-.316.707-.707.707Z" fill="#367cff"></path>
      <path d="m693.734,268.753h-78.379c-.391,0-.707-.317-.707-.707s.316-.707.707-.707h78.379c.391,0,.707.317.707.707s-.316.707-.707.707Z" fill="#367cff"></path>
      <circle cx="563.689" cy="237.714" r="35.486" fill="#292a2e"></circle>
      <g>
        <polygon points="625.54 199.278 628.43 206.754 636.433 207.191 630.215 212.25 632.272 219.997 625.54 215.646 618.808 219.997 620.865 212.25 614.648 207.191 622.651 206.754 625.54 199.278" fill="#367cff"></polygon>
        <polygon points="654.15 199.278 657.04 206.754 665.043 207.191 658.825 212.25 660.882 219.997 654.15 215.646 647.418 219.997 649.475 212.25 643.258 207.191 651.261 206.754 654.15 199.278" fill="#367cff"></polygon>
        <polygon points="682.76 199.278 685.65 206.754 693.653 207.191 687.435 212.25 689.492 219.997 682.76 215.646 676.028 219.997 678.085 212.25 671.868 207.191 679.871 206.754 682.76 199.278" fill="#367cff"></polygon>
        <polygon points="711.37 199.278 714.26 206.754 722.263 207.191 716.046 212.25 718.102 219.997 711.37 215.646 704.638 219.997 706.695 212.25 700.478 207.191 708.481 206.754 711.37 199.278" fill="#367cff"></polygon>
        <polygon points="739.98 199.278 742.87 206.754 750.873 207.191 744.656 212.25 746.712 219.997 739.98 215.646 733.248 219.997 735.305 212.25 729.088 207.191 737.091 206.754 739.98 199.278" fill="#367cff"></polygon>
      </g>
      <g>
        <rect x="369.359" y="122.122" width="99.682" height="78.376" rx="10.111" ry="10.111" fill="#292a2e"></rect>
        <g>
          <path d="m444.306,167.039h-.359c2.256.479,3.945,2.485,3.928,4.885-.017,2.748-2.331,4.929-5.079,4.926h-.831c2.027.694,3.463,2.659,3.346,4.95-.137,2.656-2.42,4.7-5.079,4.697h-1.531l-30.603-.027.044-39.132c2.998-4.618,8.275-12.422,8.275-12.422,1.097-1.74,2.97-2.697,4.888-2.697,1.053,0,2.119.291,3.076.892,2.697,1.699,3.507,5.264,1.805,7.961l-3.914,6.214,4.615.007,3.281.003,15.16.017c2.687.003,4.974,2.092,5.069,4.779.099,2.817-2.15,5.131-4.943,5.138,2.256.479,3.945,2.485,3.931,4.885-.02,2.748-2.335,4.929-5.079,4.926Z" fill="#fff"></path>
          <polygon points="408.141 147.152 408.141 147.336 408.111 186.468 408.111 186.502 391.765 186.475 391.796 147.124 408.141 147.152" fill="#367cff"></polygon>
          <circle cx="399.953" cy="154.081" r="3.377" fill="#fff" opacity=".65"></circle>
        </g>
      </g>
      <g>
        <circle cx="563.693" cy="99" r="41.858" fill="#367cff"></circle>
        <path d="m585.107,98.928c0,11.827-9.588,21.414-21.414,21.414s-21.414-9.588-21.414-21.414h42.829Z" fill="#fff"></path>
        <g>
          <circle cx="548.577" cy="82.201" r="3.647" fill="#0c0c0c"></circle>
          <circle cx="578.808" cy="82.201" r="3.647" fill="#0c0c0c"></circle>
        </g>
      </g>
      <circle cx="563.689" cy="224.479" r="14.842" fill="#fff"></circle>
      <path d="m591.848,259.318c-6.49,8.44-16.69,13.88-28.16,13.88s-21.67-5.44-28.15-13.88c6.83-7.86,16.91-12.84,28.15-12.84s21.32,4.98,28.16,12.84Z" fill="#fff"></path>
      <path d="m563.689,273.7c-19.843,0-35.986-16.143-35.986-35.986s16.144-35.986,35.986-35.986,35.985,16.143,35.985,35.986-16.143,35.986-35.985,35.986Zm0-70.972c-19.292,0-34.986,15.694-34.986,34.986s15.694,34.986,34.986,34.986,34.985-15.694,34.985-34.986-15.694-34.986-34.985-34.986Z" fill="#292a2e"></path>
      <g>
        <path d="m646.335,505.274c-.28,0-.548-.156-.679-.424l-19.908-40.832c-.183-.375-.027-.827.348-1.009.375-.182.827-.027,1.009.348l19.908,40.832c.183.375.027.827-.348,1.009-.107.052-.219.076-.33.076Z" fill="#292a2e"></path>
        <path d="m679.987,502.904c-.335,0-.641-.224-.73-.563l-23.037-87.951c-.106-.403.136-.816.539-.921.405-.105.816.136.921.539l23.037,87.951c.106.403-.136.816-.539.921-.064.017-.129.025-.192.025Z" fill="#292a2e"></path>
        <path d="m723.932,506.797c-.098,0-.198-.02-.294-.06-.384-.163-.563-.606-.4-.99l23.814-56.084c.163-.384.607-.563.99-.4.384.163.563.606.4.99l-23.814,56.084c-.122.287-.401.46-.695.46Z" fill="#292a2e"></path>
        <path d="m680.842,519.792c-.061,0-.122-.007-.184-.022-.404-.101-.65-.511-.549-.915l27.672-110.7c.102-.404.512-.649.915-.549.404.101.65.511.549.915l-27.672,110.7c-.086.343-.394.572-.732.572Z" fill="#292a2e"></path>
        <ellipse cx="715.192" cy="419.162" rx="27.171" ry="31.646" transform="translate(-110.709 347.859) rotate(-25.44)" fill="#0cbc8b"></ellipse>
        <ellipse cx="715.192" cy="419.162" rx="27.171" ry="31.646" transform="translate(-110.709 347.859) rotate(-25.44)" fill="#fff" opacity=".4"></ellipse>
        <ellipse cx="751.981" cy="461.33" rx="15.905" ry="18.98" transform="translate(-117.899 314.327) rotate(-21.937)" fill="#0cbc8b"></ellipse>
        <ellipse cx="649.373" cy="427.903" rx="28.107" ry="22.901" transform="translate(51.41 925.121) rotate(-73.127)" fill="#0cbc8b"></ellipse>
        <ellipse cx="623.283" cy="469.193" rx="17.458" ry="12.404" transform="translate(57.578 1006.411) rotate(-80.492)" fill="#0cbc8b"></ellipse>
        <rect x="628.599" y="491.538" width="117.544" height="29.292" fill="#292a2e"></rect>
        <rect x="628.599" y="491.538" width="117.544" height="29.292" fill="#fff" opacity=".3"></rect>
        <ellipse cx="708.512" cy="476.891" rx="19.492" ry="23.154" transform="translate(-126.859 299.214) rotate(-21.937)" fill="#0cbc8b"></ellipse>
        <circle cx="664.342" cy="477.425" r="18.008" fill="#0cbc8b"></circle>
        <ellipse cx="751.981" cy="461.33" rx="15.905" ry="18.98" transform="translate(-117.899 314.327) rotate(-21.937)" fill="#fff" opacity=".68"></ellipse>
        <ellipse cx="649.373" cy="427.903" rx="28.107" ry="22.901" transform="translate(51.41 925.121) rotate(-73.127)" fill="#fff" opacity=".68"></ellipse>
        <ellipse cx="623.283" cy="469.193" rx="17.458" ry="12.404" transform="translate(57.578 1006.411) rotate(-80.492)" fill="#fff" opacity=".68"></ellipse>
        <ellipse cx="708.512" cy="476.891" rx="19.492" ry="23.154" transform="translate(-126.859 299.214) rotate(-21.937)" fill="#fff" opacity=".68"></ellipse>
        <circle cx="664.342" cy="477.425" r="18.008" fill="#fff" opacity=".4"></circle>
        <path d="m722.184,462.264c-13.669,3.819-20.861-7.351-20.861-7.351l.008-.015c7.291-2.174,15.374.883,20.854,7.366Z" fill="#292a2e"></path>
        <path d="m635.848,466.838c-6.74-2.476-12.114-7.434-15.706-13.842,1.91-.974,3.97-1.366,6.023-1.019,5.691.951,9.555,7.223,9.683,14.861Z" fill="#292a2e"></path>
        <path d="m667.556,459.706c-5.57,4.845-12.091,7.91-18.786,8.672,3.125-5.359,8.929-8.959,15.571-8.959,1.102,0,2.174.098,3.215.287Z" fill="#292a2e"></path>
      </g>
      <path d="m767.616,522.424H1.487c-.552,0-1-.448-1-1s.448-1,1-1h766.129c.552,0,1,.448,1,1s-.448,1-1,1Z" fill="#292a2e"></path>
    </g>
  </g>
</svg>